<svg width="151" height="26" viewBox="0 0 151 26" fill="none" xmlns="http://www.w3.org/2000/svg">
<path d="M7.74623 14.673C11.8983 14.673 15.2578 11.3796 15.2578 7.33662C15.2578 3.28133 11.8858 0.000231164 7.74623 0.000231164H1.32933C0.725385 -0.0120576 0.23468 0.467204 0.23468 1.05706V3.55168C0.52407 3.82203 0.838624 4.06781 1.16576 4.27672C1.4929 4.52249 1.9836 4.76827 2.38623 4.92802C2.67562 5.01404 3.09083 5.12464 3.40539 5.16151C4.70135 5.32126 5.94698 4.92802 6.89065 4.1907C6.90323 4.17841 6.91581 4.16612 6.92839 4.16612C7.51975 3.68686 8.29985 3.44108 9.11769 3.5271C9.40708 3.56397 9.6713 3.6377 9.93553 3.7483C10.0236 3.78517 10.0991 3.82203 10.1746 3.8589C11.1686 4.39961 11.7725 5.48102 11.6341 6.64845C11.5712 7.15229 11.3825 7.60697 11.0805 7.98792C11.0931 8.0125 11.1183 8.03708 11.1308 8.06166C11.4831 8.59007 11.6593 9.25367 11.5838 9.94184C11.5335 10.3474 11.3951 10.7283 11.1937 11.0601C10.9924 10.2245 10.5646 9.47486 9.96069 8.885C9.86004 8.78669 9.7468 8.68838 9.64614 8.60236C9.319 8.76212 9.00445 8.93416 8.71506 9.13078C8.58924 9.20451 8.476 9.29053 8.36276 9.37655C7.63299 9.91726 7.00388 10.5931 6.51318 11.3673C6.41252 11.5271 6.32445 11.6868 6.23637 11.8466C6.22379 11.8589 6.22379 11.8712 6.21121 11.8835C6.1483 11.9941 6.09797 12.0924 6.02248 12.1907C6.00989 12.203 6.00989 12.2153 5.99731 12.2275C5.9344 12.3259 5.87149 12.4119 5.796 12.5102C5.78341 12.5225 5.78341 12.5348 5.77083 12.5471C5.70792 12.6208 5.64501 12.6945 5.5821 12.7683C5.56952 12.7928 5.54435 12.8051 5.53177 12.8297C5.46886 12.9034 5.39337 12.9649 5.33046 13.0386C5.31787 13.0509 5.30529 13.0632 5.29271 13.0878C5.28013 13.1 5.26755 13.1123 5.24238 13.1246C5.17947 13.1861 5.10398 13.2475 5.02848 13.309C5.00332 13.3335 4.97816 13.3458 4.95299 13.3704C4.89008 13.4196 4.82717 13.4687 4.76426 13.5056C4.75168 13.5179 4.72651 13.5302 4.71393 13.5424C4.50003 13.6899 4.27355 13.8128 4.04708 13.9234C3.6067 14.12 3.12858 14.2552 2.62529 14.3166C2.48689 14.3289 2.34848 14.3412 2.21008 14.3412C2.17233 14.3412 2.13459 14.3412 2.09684 14.3412C1.45515 14.3412 0.838624 14.206 0.272427 13.9725V14.6976V22.034V22.7099C0.272427 23.2751 0.725385 23.7298 1.279 23.779C1.30416 23.779 1.32933 23.7913 1.36707 23.7913C1.40482 23.7913 1.4174 23.779 1.45515 23.779H4.89008C4.89008 23.7421 4.89008 23.7052 4.89008 23.6684C4.89008 23.0908 5.06623 22.5501 5.38079 22.0954C5.40595 22.0708 5.43111 22.034 5.4437 21.9971C5.63243 21.7268 5.74567 21.3827 5.74567 21.0263C5.74567 20.928 5.73309 20.8297 5.7205 20.7314C5.68276 20.5225 5.60726 20.3258 5.50661 20.1538L5.49402 20.1415C5.48144 20.1169 5.46886 20.0924 5.4437 20.0678C5.29271 19.8097 5.20463 19.5148 5.20463 19.1953C5.20463 18.8143 5.33046 18.4579 5.54435 18.1753C5.4437 17.8927 5.29271 17.6346 5.10398 17.4011C5.46886 17.4011 5.80858 17.5117 6.08539 17.7083C6.34961 17.5609 6.66417 17.4626 6.9913 17.4626C7.97271 17.4626 8.76539 18.2367 8.76539 19.1953C8.76539 19.3059 8.7528 19.4165 8.72764 19.5271C8.71506 19.5516 8.71506 19.5885 8.70248 19.6254C8.67731 19.736 8.66473 19.8466 8.66473 19.9572C8.66473 20.5102 8.94154 21.014 9.35675 21.3335C9.3945 21.3581 9.43224 21.3827 9.46999 21.4072C9.46999 21.4072 9.48257 21.4072 9.48257 21.4195C10.1872 21.9357 10.6401 22.7467 10.6401 23.6684C10.6401 23.7052 10.6401 23.7421 10.6401 23.779H14.1128C14.138 23.779 14.1631 23.7913 14.2009 23.7913C14.2386 23.7913 14.2512 23.779 14.289 23.779C14.8552 23.7421 15.2955 23.2751 15.2955 22.7099V22.034C15.2704 17.9541 11.8983 14.673 7.74623 14.673Z" fill="white"/>
<path d="M1.7016 4.05047C1.61321 4.00735 1.78999 4.07922 1.7016 4.05047V4.05047Z" fill="white"/>
<path d="M19.2268 23.7586C19.0339 23.7586 18.8699 23.6916 18.7349 23.5577C18.5999 23.4239 18.5323 23.2613 18.5323 23.07V4.39305C18.5323 4.18266 18.5902 4.01053 18.706 3.87664C18.841 3.74276 19.0146 3.67581 19.2268 3.67581H31.9867C32.1989 3.67581 32.3725 3.74276 32.5075 3.87664C32.6426 4.01053 32.7101 4.18266 32.7101 4.39305V6.31526C32.7101 6.52565 32.6426 6.69779 32.5075 6.83167C32.3725 6.94643 32.1989 7.00381 31.9867 7.00381H22.4963V12.0245H31.3502C31.5624 12.0245 31.736 12.0914 31.871 12.2253C32.006 12.3592 32.0735 12.5314 32.0735 12.7417V14.5492C32.0735 14.7596 32.006 14.9317 31.871 15.0656C31.736 15.1804 31.5624 15.2377 31.3502 15.2377H22.4963V20.4306H32.2182C32.4304 20.4306 32.604 20.4975 32.739 20.6314C32.874 20.7462 32.9415 20.9087 32.9415 21.1191V23.07C32.9415 23.2804 32.874 23.4526 32.739 23.5864C32.604 23.7012 32.4304 23.7586 32.2182 23.7586H19.2268Z" fill="white"/>
<path d="M37.2541 23.7586C37.0612 23.7586 36.8972 23.6916 36.7622 23.5577C36.6272 23.4239 36.5597 23.2613 36.5597 23.07V4.39305C36.5597 4.18266 36.6175 4.01053 36.7333 3.87664C36.8683 3.74276 37.0419 3.67581 37.2541 3.67581H44.314C50.0044 3.67581 52.9075 6.27701 53.0232 11.4794C53.0618 12.5887 53.0811 13.3347 53.0811 13.7172C53.0811 14.0806 53.0618 14.817 53.0232 15.9263C52.946 18.604 52.213 20.5836 50.8242 21.8651C49.4547 23.1274 47.3328 23.7586 44.4587 23.7586H37.2541ZM44.314 20.4306C45.915 20.4306 47.0724 20.0767 47.7861 19.3691C48.4998 18.6614 48.876 17.4851 48.9145 15.8402C48.9531 14.6926 48.9724 13.9754 48.9724 13.6885C48.9724 13.3825 48.9531 12.6748 48.9145 11.5655C48.876 9.9971 48.4805 8.84951 47.7282 8.12271C46.976 7.37678 45.7897 7.00381 44.1693 7.00381H40.6394V20.4306H44.314Z" fill="white"/>
<path d="M57.5984 23.7586C57.4055 23.7586 57.2415 23.6916 57.1065 23.5577C56.9715 23.4239 56.904 23.2613 56.904 23.07V4.39305C56.904 4.18266 56.9618 4.01053 57.0776 3.87664C57.2126 3.74276 57.3862 3.67581 57.5984 3.67581H70.3584C70.5705 3.67581 70.7441 3.74276 70.8792 3.87664C71.0142 4.01053 71.0817 4.18266 71.0817 4.39305V6.31526C71.0817 6.52565 71.0142 6.69779 70.8792 6.83167C70.7441 6.94643 70.5705 7.00381 70.3584 7.00381H60.868V12.0245H69.7218C69.934 12.0245 70.1076 12.0914 70.2426 12.2253C70.3776 12.3592 70.4452 12.5314 70.4452 12.7417V14.5492C70.4452 14.7596 70.3776 14.9317 70.2426 15.0656C70.1076 15.1804 69.934 15.2377 69.7218 15.2377H60.868V20.4306H70.5898C70.802 20.4306 70.9756 20.4975 71.1106 20.6314C71.2457 20.7462 71.3132 20.9087 71.3132 21.1191V23.07C71.3132 23.2804 71.2457 23.4526 71.1106 23.5864C70.9756 23.7012 70.802 23.7586 70.5898 23.7586H57.5984Z" fill="white"/>
<path d="M75.6257 23.7586C75.4328 23.7586 75.2689 23.6916 75.1338 23.5577C74.9988 23.4239 74.9313 23.2613 74.9313 23.07V4.39305C74.9313 4.18266 74.9892 4.01053 75.1049 3.87664C75.2399 3.74276 75.4135 3.67581 75.6257 3.67581H88.3857C88.5978 3.67581 88.7715 3.74276 88.9065 3.87664C89.0415 4.01053 89.109 4.18266 89.109 4.39305V6.31526C89.109 6.52565 89.0415 6.69779 88.9065 6.83167C88.7715 6.94643 88.5978 7.00381 88.3857 7.00381H78.8953V12.0245H87.7491C87.9613 12.0245 88.1349 12.0914 88.2699 12.2253C88.405 12.3592 88.4725 12.5314 88.4725 12.7417V14.5492C88.4725 14.7596 88.405 14.9317 88.2699 15.0656C88.1349 15.1804 87.9613 15.2377 87.7491 15.2377H78.8953V20.4306H88.6171C88.8293 20.4306 89.0029 20.4975 89.138 20.6314C89.273 20.7462 89.3405 20.9087 89.3405 21.1191V23.07C89.3405 23.2804 89.273 23.4526 89.138 23.5864C89.0029 23.7012 88.8293 23.7586 88.6171 23.7586H75.6257Z" fill="white"/>
<path d="M93.653 23.7586C93.4601 23.7586 93.2962 23.6916 93.1612 23.5577C93.0261 23.4239 92.9586 23.2613 92.9586 23.07V4.39305C92.9586 4.18266 93.0165 4.01053 93.1322 3.87664C93.2673 3.74276 93.4409 3.67581 93.653 3.67581H95.9967C96.3632 3.67581 96.6525 3.85751 96.8647 4.22092L102.449 14.4918L108.033 4.22092C108.245 3.85751 108.535 3.67581 108.901 3.67581H111.216C111.428 3.67581 111.602 3.74276 111.737 3.87664C111.872 4.01053 111.939 4.18266 111.939 4.39305V23.07C111.939 23.2804 111.872 23.4526 111.737 23.5864C111.602 23.7012 111.428 23.7586 111.216 23.7586H108.728C108.535 23.7586 108.371 23.6916 108.236 23.5577C108.101 23.4239 108.033 23.2613 108.033 23.07V10.7335L104.011 18.3075C103.799 18.7283 103.481 18.9387 103.057 18.9387H101.841C101.436 18.9387 101.108 18.7283 100.858 18.3075L96.8358 10.7335V23.07C96.8358 23.2613 96.7683 23.4239 96.6333 23.5577C96.5175 23.6916 96.3536 23.7586 96.1414 23.7586H93.653Z" fill="white"/>
<path d="M122.978 24.0455C121.474 24.0455 120.162 23.8064 119.043 23.3282C117.944 22.8309 117.095 22.1902 116.497 21.406C115.919 20.6218 115.61 19.7803 115.571 18.8813C115.571 18.7283 115.629 18.5944 115.745 18.4797C115.861 18.3649 116.005 18.3075 116.179 18.3075H116.758C117.105 18.3075 117.317 18.4988 117.394 18.8813C117.529 19.7994 118.06 20.6027 118.986 21.2913C119.911 21.9798 121.242 22.3241 122.978 22.3241C124.811 22.3241 126.171 21.9989 127.058 21.3486C127.965 20.6792 128.418 19.7516 128.418 18.5657C128.418 17.8389 128.196 17.246 127.753 16.787C127.328 16.3088 126.701 15.8976 125.872 15.5533C125.042 15.1899 123.789 14.7405 122.11 14.2049C120.625 13.7268 119.458 13.2582 118.609 12.7991C117.78 12.3401 117.163 11.7759 116.758 11.1064C116.353 10.437 116.15 9.58588 116.15 8.55305C116.15 7.57761 116.41 6.69779 116.931 5.91361C117.471 5.12942 118.243 4.51738 119.246 4.07747C120.249 3.61843 121.445 3.38892 122.834 3.38892C124.261 3.38892 125.486 3.64712 126.508 4.16354C127.531 4.66082 128.302 5.30156 128.823 6.08574C129.344 6.8508 129.624 7.62542 129.662 8.40961C129.662 8.56262 129.604 8.6965 129.489 8.81126C129.392 8.92602 129.248 8.9834 129.055 8.9834H128.476C128.341 8.9834 128.206 8.94515 128.071 8.86864C127.936 8.77301 127.859 8.62 127.839 8.40961C127.724 7.45328 127.203 6.6691 126.277 6.05705C125.37 5.42588 124.223 5.1103 122.834 5.1103C121.349 5.1103 120.162 5.39719 119.275 5.97099C118.407 6.54478 117.973 7.40547 117.973 8.55305C117.973 9.29899 118.166 9.92059 118.552 10.4179C118.957 10.896 119.555 11.3168 120.345 11.6802C121.136 12.0245 122.303 12.4453 123.846 12.9426C125.428 13.4399 126.663 13.918 127.55 14.3771C128.437 14.8361 129.103 15.3908 129.547 16.0411C130.009 16.6914 130.241 17.5329 130.241 18.5657C130.241 20.2871 129.595 21.6355 128.302 22.611C127.01 23.5673 125.235 24.0455 122.978 24.0455Z" fill="white"/>
<path d="M141.365 24.0455C138.954 24.0455 137.083 23.3569 135.752 21.9798C134.421 20.6027 133.717 18.757 133.64 16.4427C133.62 15.8689 133.611 14.9604 133.611 13.7172C133.611 12.474 133.62 11.5655 133.64 10.9917C133.717 8.67738 134.421 6.83167 135.752 5.45457C137.083 4.07747 138.954 3.38892 141.365 3.38892C143.005 3.38892 144.384 3.69494 145.503 4.30699C146.622 4.91903 147.451 5.64584 147.991 6.4874C148.551 7.30984 148.849 8.0462 148.888 8.6965V8.75388C148.888 8.90689 148.83 9.03121 148.714 9.12685C148.599 9.22248 148.454 9.2703 148.28 9.2703H147.644C147.47 9.2703 147.345 9.23204 147.268 9.15554C147.191 9.07903 147.113 8.92602 147.036 8.6965C146.708 7.6828 146.072 6.83168 145.127 6.14312C144.201 5.45457 142.947 5.1103 141.365 5.1103C139.571 5.1103 138.153 5.59802 137.112 6.57347C136.09 7.54892 135.54 9.06947 135.463 11.1351C135.443 11.7089 135.434 12.5696 135.434 13.7172C135.434 14.8648 135.443 15.7255 135.463 16.2993C135.54 18.3649 136.09 19.8855 137.112 20.8609C138.153 21.8364 139.571 22.3241 141.365 22.3241C143.159 22.3241 144.606 21.8172 145.705 20.8035C146.805 19.7898 147.355 18.2884 147.355 16.2993V14.8361H142.32C142.127 14.8361 141.973 14.7787 141.857 14.664C141.741 14.5301 141.683 14.3675 141.683 14.1762V13.7746C141.683 13.5833 141.741 13.4303 141.857 13.3155C141.973 13.1817 142.127 13.1147 142.32 13.1147H148.512C148.724 13.1147 148.888 13.1721 149.004 13.2868C149.12 13.4016 149.177 13.5642 149.177 13.7746V16.2993C149.177 17.8294 148.869 19.1778 148.252 20.3445C147.634 21.5112 146.737 22.4197 145.561 23.07C144.384 23.7203 142.986 24.0455 141.365 24.0455Z" fill="white"/>
</svg>
